arm26_states
version=1
nRows=24
nColumns=17
inDegrees=yes

# SIMM Motion File Header:
name arm26_states
datacolumns 17
datarows 24
otherdata 1
range 0.59819982 0.71717105
endheader
time	/jointset/r_shoulder/r_shoulder_elev/value	/jointset/r_shoulder/r_shoulder_elev/speed	/jointset/r_elbow/r_elbow_flex/value	/jointset/r_elbow/r_elbow_flex/speed	/forceset/TRIlong/activation	/forceset/TRIlong/fiber_length	/forceset/TRIlat/activation	/forceset/TRIlat/fiber_length	/forceset/TRImed/activation	/forceset/TRImed/fiber_length	/forceset/BIClong/activation	/forceset/BIClong/fiber_length	/forceset/BICshort/activation	/forceset/BICshort/fiber_length	/forceset/BRA/activation	/forceset/BRA/fiber_length
      0.59819982	     -9.88624692	      7.73524976	     22.75926822	     32.78469183	     -0.05157653	      0.13948645	     -0.05157653	      0.07945579	     -0.05157653	      0.07445921	     -0.05157653	      0.14615881	     -0.05157653	      0.14399116	     -0.05157653	      0.08799794
      0.60415732	     -9.83537704	      9.34289660	     22.95167739	     31.79540797	     -0.05234356	      0.13959264	     -0.05234356	      0.07953569	     -0.05234356	      0.07453871	     -0.05234356	      0.14607324	     -0.05234356	      0.14390566	     -0.05234356	      0.08795322
      0.60867039	     -9.79045738	     10.56397578	     23.09336381	     30.98549824	     -0.05292462	      0.13967538	     -0.05292462	      0.07959463	     -0.05292462	      0.07459735	     -0.05292462	      0.14600654	     -0.05292462	      0.14384040	     -0.05292462	      0.08792029
      0.61318345	     -9.74002521	     11.78539871	     23.23128853	     30.12945151	     -0.05350568	      0.13976000	     -0.05350568	      0.07965210	     -0.05350568	      0.07465451	     -0.05350568	      0.14594006	     -0.05350568	      0.14377485	     -0.05350568	      0.08788821
      0.61769651	     -9.68408066	     13.00673240	     23.36524338	     29.22614695	     -0.05408673	      0.13984643	     -0.05408673	      0.07970801	     -0.05408673	      0.07471012	     -0.05408673	      0.14587240	     -0.05408673	      0.14370911	     -0.05408673	      0.08785704
      0.62419756	     -9.59381278	     14.76213646	     23.55081439	     27.85038778	     -0.05492374	      0.13997390	     -0.05492374	      0.07978564	     -0.05492374	      0.07478731	     -0.05492374	      0.14577489	     -0.05492374	      0.14361429	     -0.05492374	      0.08781382
      0.62826640	     -9.53151789	     15.85777818	     23.66229997	     26.94385387	     -0.05544761	      0.14005539	     -0.05544761	      0.07983239	     -0.05544761	      0.07483378	     -0.05544761	      0.14571240	     -0.05544761	      0.14355499	     -0.05544761	      0.08778785
      0.63233524	     -9.46477367	     16.94894501	     23.77003627	     26.00793167	     -0.05597147	      0.14013810	     -0.05597147	      0.07987766	     -0.05597147	      0.07487878	     -0.05597147	      0.14565045	     -0.05597147	      0.14349582	     -0.05597147	      0.08776272
      0.63838851	     -9.35728591	     18.56291695	     23.92312148	     24.56104055	     -0.05675083	      0.14026330	     -0.05675083	      0.07994216	     -0.05675083	      0.07494287	     -0.05675083	      0.14555759	     -0.05675083	      0.14340820	     -0.05675083	      0.08772699
      0.64403343	     -9.24828176	     20.05487209	     24.05783174	     23.15933717	     -0.05747761	      0.14038223	     -0.05747761	      0.07999914	     -0.05747761	      0.07499946	     -0.05747761	      0.14547106	     -0.05747761	      0.14332711	     -0.05747761	      0.08769549
      0.64967835	     -9.13089752	     21.53187673	     24.18449703	     21.71029224	     -0.05820439	      0.14050309	     -0.05820439	      0.08005292	     -0.05820439	      0.07505287	     -0.05820439	      0.14538378	     -0.05820439	      0.14324683	     -0.05820439	      0.08766583
      0.65445560	     -9.02507778	     22.76722382	     24.28522172	     20.45422175	     -0.05881947	      0.14060677	     -0.05881947	      0.08009588	     -0.05881947	      0.07509550	     -0.05881947	      0.14531090	     -0.05881947	      0.14317965	     -0.05881947	      0.08764220
      0.65923284	     -8.91339022	     23.98838785	     24.37988070	     19.17060118	     -0.05943454	      0.14071164	     -0.05943454	      0.08013643	     -0.05943454	      0.07513573	     -0.05943454	      0.14523727	     -0.05943454	      0.14311330	     -0.05943454	      0.08761996
      0.66401009	     -8.79590798	     25.19273331	     24.46835530	     17.86626868	     -0.06004961	      0.14081761	     -0.06004961	      0.08017453	     -0.06004961	      0.07517350	     -0.06004961	      0.14516448	     -0.06004961	      0.14304789	     -0.06004961	      0.08759911
      0.66998212	     -8.64102199	     26.67291805	     24.57011790	     16.20859640	     -0.06081850	      0.14095149	     -0.06081850	      0.08021865	     -0.06081850	      0.07521722	     -0.06081850	      0.14507329	     -0.06081850	      0.14296758	     -0.06081850	      0.08757507
      0.67512021	     -8.50075767	     27.92063660	     24.64969816	     14.76630583	     -0.06148003	      0.14106783	     -0.06148003	      0.08025344	     -0.06148003	      0.07525167	     -0.06148003	      0.14499610	     -0.06148003	      0.14289993	     -0.06148003	      0.08755620
      0.68025830	     -8.35414681	     29.14326784	     24.72183337	     13.31020343	     -0.06214156	      0.14118511	     -0.06214156	      0.08028528	     -0.06214156	      0.07528316	     -0.06214156	      0.14491853	     -0.06214156	      0.14283374	     -0.06214156	      0.08753902
      0.68539639	     -8.20132511	     30.33756326	     24.78646921	     11.84900680	     -0.06280309	      0.14130325	     -0.06280309	      0.08031414	     -0.06280309	      0.07531167	     -0.06280309	      0.14484248	     -0.06280309	      0.14276913	     -0.06280309	      0.08752355
      0.69053448	     -8.04244234	     31.50243693	     24.84358675	     10.38356199	     -0.06346462	      0.14142215	     -0.06346462	      0.08034001	     -0.06346462	      0.07533720	     -0.06346462	      0.14476634	     -0.06346462	      0.14270619	     -0.06346462	      0.08750979
      0.69567258	     -7.87765620	     32.63490080	     24.89318033	      8.92182909	     -0.06412615	      0.14154171	     -0.06412615	      0.08036289	     -0.06412615	      0.07535974	     -0.06412615	      0.14469165	     -0.06412615	      0.14264503	     -0.06412615	      0.08749774
      0.70081067	     -7.70713749	     33.73365683	     24.93527721	      7.46565265	     -0.06478768	      0.14166186	     -0.06478768	      0.08038279	     -0.06478768	      0.07537929	     -0.06478768	      0.14461726	     -0.06478768	      0.14258573	     -0.06478768	      0.08748741
      0.70740344	     -7.48023353	     35.08990969	     24.97838378	      5.61634495	     -0.06563650	      0.14181672	     -0.06563650	      0.08040398	     -0.06563650	      0.07540004	     -0.06563650	      0.14452389	     -0.06563650	      0.14251249	     -0.06563650	      0.08747664
      0.71228724	     -7.30649180	     36.05444819	     25.00249957	      4.26204931	     -0.06626529	      0.14193188	     -0.06626529	      0.08041656	     -0.06626529	      0.07541229	     -0.06626529	      0.14445484	     -0.06626529	      0.14246041	     -0.06626529	      0.08747044
      0.71717105	     -7.12812873	     36.98201933	     25.02005025	      2.92895799	     -0.06689408	      0.14204731	     -0.06689408	      0.08042652	     -0.06689408	      0.07542192	     -0.06689408	      0.14438748	     -0.06689408	      0.14241022	     -0.06689408	      0.08746575
